<mxfile host="app.diagrams.net" agent="Mozilla/5.0 (Macintosh; Intel Mac OS X 10_15_7) AppleWebKit/537.36 (KHTML, like Gecko) Chrome/135.0.0.0 Safari/537.36" version="27.1.1">
  <diagram name="Page-1" id="U8SUdFyvjvmqlhiXIkBn">
    <mxGraphModel dx="591" dy="1014" grid="1" gridSize="10" guides="1" tooltips="1" connect="1" arrows="1" fold="1" page="1" pageScale="1" pageWidth="850" pageHeight="1100" math="0" shadow="0">
      <root>
        <mxCell id="0" />
        <mxCell id="1" parent="0" />
        <mxCell id="W6bzQkARnBELGR5Gf_8T-5" value="gold.dim_customers" style="shape=table;startSize=30;container=1;collapsible=1;childLayout=tableLayout;fixedRows=1;rowLines=0;fontStyle=1;align=center;resizeLast=1;html=1;rounded=1;fillColor=#fff2cc;strokeColor=#d6b656;fontSize=16;" vertex="1" parent="1">
          <mxGeometry x="100" y="430" width="180" height="600" as="geometry" />
        </mxCell>
        <mxCell id="W6bzQkARnBELGR5Gf_8T-6" value="" style="shape=tableRow;horizontal=0;startSize=0;swimlaneHead=0;swimlaneBody=0;fillColor=none;collapsible=0;dropTarget=0;points=[[0,0.5],[1,0.5]];portConstraint=eastwest;top=0;left=0;right=0;bottom=1;fontSize=16;" vertex="1" parent="W6bzQkARnBELGR5Gf_8T-5">
          <mxGeometry y="30" width="180" height="57" as="geometry" />
        </mxCell>
        <mxCell id="W6bzQkARnBELGR5Gf_8T-7" value="PK" style="shape=partialRectangle;connectable=0;fillColor=none;top=0;left=0;bottom=0;right=0;fontStyle=1;overflow=hidden;whiteSpace=wrap;html=1;fontSize=16;" vertex="1" parent="W6bzQkARnBELGR5Gf_8T-6">
          <mxGeometry width="30" height="57" as="geometry">
            <mxRectangle width="30" height="57" as="alternateBounds" />
          </mxGeometry>
        </mxCell>
        <mxCell id="W6bzQkARnBELGR5Gf_8T-8" value="customer_key" style="shape=partialRectangle;connectable=0;fillColor=none;top=0;left=0;bottom=0;right=0;align=left;spacingLeft=6;fontStyle=5;overflow=hidden;whiteSpace=wrap;html=1;fontSize=16;" vertex="1" parent="W6bzQkARnBELGR5Gf_8T-6">
          <mxGeometry x="30" width="150" height="57" as="geometry">
            <mxRectangle width="150" height="57" as="alternateBounds" />
          </mxGeometry>
        </mxCell>
        <mxCell id="W6bzQkARnBELGR5Gf_8T-9" value="" style="shape=tableRow;horizontal=0;startSize=0;swimlaneHead=0;swimlaneBody=0;fillColor=none;collapsible=0;dropTarget=0;points=[[0,0.5],[1,0.5]];portConstraint=eastwest;top=0;left=0;right=0;bottom=0;fontSize=16;" vertex="1" parent="W6bzQkARnBELGR5Gf_8T-5">
          <mxGeometry y="87" width="180" height="57" as="geometry" />
        </mxCell>
        <mxCell id="W6bzQkARnBELGR5Gf_8T-10" value="" style="shape=partialRectangle;connectable=0;fillColor=none;top=0;left=0;bottom=0;right=0;editable=1;overflow=hidden;whiteSpace=wrap;html=1;fontSize=16;" vertex="1" parent="W6bzQkARnBELGR5Gf_8T-9">
          <mxGeometry width="30" height="57" as="geometry">
            <mxRectangle width="30" height="57" as="alternateBounds" />
          </mxGeometry>
        </mxCell>
        <mxCell id="W6bzQkARnBELGR5Gf_8T-11" value="customer_id" style="shape=partialRectangle;connectable=0;fillColor=none;top=0;left=0;bottom=0;right=0;align=left;spacingLeft=6;overflow=hidden;whiteSpace=wrap;html=1;fontSize=16;" vertex="1" parent="W6bzQkARnBELGR5Gf_8T-9">
          <mxGeometry x="30" width="150" height="57" as="geometry">
            <mxRectangle width="150" height="57" as="alternateBounds" />
          </mxGeometry>
        </mxCell>
        <mxCell id="W6bzQkARnBELGR5Gf_8T-12" value="" style="shape=tableRow;horizontal=0;startSize=0;swimlaneHead=0;swimlaneBody=0;fillColor=none;collapsible=0;dropTarget=0;points=[[0,0.5],[1,0.5]];portConstraint=eastwest;top=0;left=0;right=0;bottom=0;fontSize=16;" vertex="1" parent="W6bzQkARnBELGR5Gf_8T-5">
          <mxGeometry y="144" width="180" height="57" as="geometry" />
        </mxCell>
        <mxCell id="W6bzQkARnBELGR5Gf_8T-13" value="" style="shape=partialRectangle;connectable=0;fillColor=none;top=0;left=0;bottom=0;right=0;editable=1;overflow=hidden;whiteSpace=wrap;html=1;fontSize=16;" vertex="1" parent="W6bzQkARnBELGR5Gf_8T-12">
          <mxGeometry width="30" height="57" as="geometry">
            <mxRectangle width="30" height="57" as="alternateBounds" />
          </mxGeometry>
        </mxCell>
        <mxCell id="W6bzQkARnBELGR5Gf_8T-14" value="customer_number" style="shape=partialRectangle;connectable=0;fillColor=none;top=0;left=0;bottom=0;right=0;align=left;spacingLeft=6;overflow=hidden;whiteSpace=wrap;html=1;fontSize=16;" vertex="1" parent="W6bzQkARnBELGR5Gf_8T-12">
          <mxGeometry x="30" width="150" height="57" as="geometry">
            <mxRectangle width="150" height="57" as="alternateBounds" />
          </mxGeometry>
        </mxCell>
        <mxCell id="W6bzQkARnBELGR5Gf_8T-15" value="" style="shape=tableRow;horizontal=0;startSize=0;swimlaneHead=0;swimlaneBody=0;fillColor=none;collapsible=0;dropTarget=0;points=[[0,0.5],[1,0.5]];portConstraint=eastwest;top=0;left=0;right=0;bottom=0;fontSize=16;" vertex="1" parent="W6bzQkARnBELGR5Gf_8T-5">
          <mxGeometry y="201" width="180" height="57" as="geometry" />
        </mxCell>
        <mxCell id="W6bzQkARnBELGR5Gf_8T-16" value="" style="shape=partialRectangle;connectable=0;fillColor=none;top=0;left=0;bottom=0;right=0;editable=1;overflow=hidden;whiteSpace=wrap;html=1;fontSize=16;" vertex="1" parent="W6bzQkARnBELGR5Gf_8T-15">
          <mxGeometry width="30" height="57" as="geometry">
            <mxRectangle width="30" height="57" as="alternateBounds" />
          </mxGeometry>
        </mxCell>
        <mxCell id="W6bzQkARnBELGR5Gf_8T-17" value="first_name" style="shape=partialRectangle;connectable=0;fillColor=none;top=0;left=0;bottom=0;right=0;align=left;spacingLeft=6;overflow=hidden;whiteSpace=wrap;html=1;fontSize=16;" vertex="1" parent="W6bzQkARnBELGR5Gf_8T-15">
          <mxGeometry x="30" width="150" height="57" as="geometry">
            <mxRectangle width="150" height="57" as="alternateBounds" />
          </mxGeometry>
        </mxCell>
        <mxCell id="W6bzQkARnBELGR5Gf_8T-18" value="" style="shape=tableRow;horizontal=0;startSize=0;swimlaneHead=0;swimlaneBody=0;fillColor=none;collapsible=0;dropTarget=0;points=[[0,0.5],[1,0.5]];portConstraint=eastwest;top=0;left=0;right=0;bottom=0;fontSize=16;" vertex="1" parent="W6bzQkARnBELGR5Gf_8T-5">
          <mxGeometry y="258" width="180" height="57" as="geometry" />
        </mxCell>
        <mxCell id="W6bzQkARnBELGR5Gf_8T-19" value="" style="shape=partialRectangle;connectable=0;fillColor=none;top=0;left=0;bottom=0;right=0;editable=1;overflow=hidden;whiteSpace=wrap;html=1;fontSize=16;" vertex="1" parent="W6bzQkARnBELGR5Gf_8T-18">
          <mxGeometry width="30" height="57" as="geometry">
            <mxRectangle width="30" height="57" as="alternateBounds" />
          </mxGeometry>
        </mxCell>
        <mxCell id="W6bzQkARnBELGR5Gf_8T-20" value="last_name" style="shape=partialRectangle;connectable=0;fillColor=none;top=0;left=0;bottom=0;right=0;align=left;spacingLeft=6;overflow=hidden;whiteSpace=wrap;html=1;fontSize=16;" vertex="1" parent="W6bzQkARnBELGR5Gf_8T-18">
          <mxGeometry x="30" width="150" height="57" as="geometry">
            <mxRectangle width="150" height="57" as="alternateBounds" />
          </mxGeometry>
        </mxCell>
        <mxCell id="W6bzQkARnBELGR5Gf_8T-21" value="" style="shape=tableRow;horizontal=0;startSize=0;swimlaneHead=0;swimlaneBody=0;fillColor=none;collapsible=0;dropTarget=0;points=[[0,0.5],[1,0.5]];portConstraint=eastwest;top=0;left=0;right=0;bottom=0;fontSize=16;" vertex="1" parent="W6bzQkARnBELGR5Gf_8T-5">
          <mxGeometry y="315" width="180" height="57" as="geometry" />
        </mxCell>
        <mxCell id="W6bzQkARnBELGR5Gf_8T-22" value="" style="shape=partialRectangle;connectable=0;fillColor=none;top=0;left=0;bottom=0;right=0;editable=1;overflow=hidden;whiteSpace=wrap;html=1;fontSize=16;" vertex="1" parent="W6bzQkARnBELGR5Gf_8T-21">
          <mxGeometry width="30" height="57" as="geometry">
            <mxRectangle width="30" height="57" as="alternateBounds" />
          </mxGeometry>
        </mxCell>
        <mxCell id="W6bzQkARnBELGR5Gf_8T-23" value="country" style="shape=partialRectangle;connectable=0;fillColor=none;top=0;left=0;bottom=0;right=0;align=left;spacingLeft=6;overflow=hidden;whiteSpace=wrap;html=1;fontSize=16;" vertex="1" parent="W6bzQkARnBELGR5Gf_8T-21">
          <mxGeometry x="30" width="150" height="57" as="geometry">
            <mxRectangle width="150" height="57" as="alternateBounds" />
          </mxGeometry>
        </mxCell>
        <mxCell id="W6bzQkARnBELGR5Gf_8T-24" value="" style="shape=tableRow;horizontal=0;startSize=0;swimlaneHead=0;swimlaneBody=0;fillColor=none;collapsible=0;dropTarget=0;points=[[0,0.5],[1,0.5]];portConstraint=eastwest;top=0;left=0;right=0;bottom=0;fontSize=16;" vertex="1" parent="W6bzQkARnBELGR5Gf_8T-5">
          <mxGeometry y="372" width="180" height="57" as="geometry" />
        </mxCell>
        <mxCell id="W6bzQkARnBELGR5Gf_8T-25" value="" style="shape=partialRectangle;connectable=0;fillColor=none;top=0;left=0;bottom=0;right=0;editable=1;overflow=hidden;whiteSpace=wrap;html=1;fontSize=16;" vertex="1" parent="W6bzQkARnBELGR5Gf_8T-24">
          <mxGeometry width="30" height="57" as="geometry">
            <mxRectangle width="30" height="57" as="alternateBounds" />
          </mxGeometry>
        </mxCell>
        <mxCell id="W6bzQkARnBELGR5Gf_8T-26" value="marital_status" style="shape=partialRectangle;connectable=0;fillColor=none;top=0;left=0;bottom=0;right=0;align=left;spacingLeft=6;overflow=hidden;whiteSpace=wrap;html=1;fontSize=16;" vertex="1" parent="W6bzQkARnBELGR5Gf_8T-24">
          <mxGeometry x="30" width="150" height="57" as="geometry">
            <mxRectangle width="150" height="57" as="alternateBounds" />
          </mxGeometry>
        </mxCell>
        <mxCell id="W6bzQkARnBELGR5Gf_8T-27" value="" style="shape=tableRow;horizontal=0;startSize=0;swimlaneHead=0;swimlaneBody=0;fillColor=none;collapsible=0;dropTarget=0;points=[[0,0.5],[1,0.5]];portConstraint=eastwest;top=0;left=0;right=0;bottom=0;fontSize=16;" vertex="1" parent="W6bzQkARnBELGR5Gf_8T-5">
          <mxGeometry y="429" width="180" height="57" as="geometry" />
        </mxCell>
        <mxCell id="W6bzQkARnBELGR5Gf_8T-28" value="" style="shape=partialRectangle;connectable=0;fillColor=none;top=0;left=0;bottom=0;right=0;editable=1;overflow=hidden;whiteSpace=wrap;html=1;fontSize=16;" vertex="1" parent="W6bzQkARnBELGR5Gf_8T-27">
          <mxGeometry width="30" height="57" as="geometry">
            <mxRectangle width="30" height="57" as="alternateBounds" />
          </mxGeometry>
        </mxCell>
        <mxCell id="W6bzQkARnBELGR5Gf_8T-29" value="gender" style="shape=partialRectangle;connectable=0;fillColor=none;top=0;left=0;bottom=0;right=0;align=left;spacingLeft=6;overflow=hidden;whiteSpace=wrap;html=1;fontSize=16;" vertex="1" parent="W6bzQkARnBELGR5Gf_8T-27">
          <mxGeometry x="30" width="150" height="57" as="geometry">
            <mxRectangle width="150" height="57" as="alternateBounds" />
          </mxGeometry>
        </mxCell>
        <mxCell id="W6bzQkARnBELGR5Gf_8T-30" value="" style="shape=tableRow;horizontal=0;startSize=0;swimlaneHead=0;swimlaneBody=0;fillColor=none;collapsible=0;dropTarget=0;points=[[0,0.5],[1,0.5]];portConstraint=eastwest;top=0;left=0;right=0;bottom=0;fontSize=16;" vertex="1" parent="W6bzQkARnBELGR5Gf_8T-5">
          <mxGeometry y="486" width="180" height="57" as="geometry" />
        </mxCell>
        <mxCell id="W6bzQkARnBELGR5Gf_8T-31" value="" style="shape=partialRectangle;connectable=0;fillColor=none;top=0;left=0;bottom=0;right=0;editable=1;overflow=hidden;whiteSpace=wrap;html=1;fontSize=16;" vertex="1" parent="W6bzQkARnBELGR5Gf_8T-30">
          <mxGeometry width="30" height="57" as="geometry">
            <mxRectangle width="30" height="57" as="alternateBounds" />
          </mxGeometry>
        </mxCell>
        <mxCell id="W6bzQkARnBELGR5Gf_8T-32" value="birthdate" style="shape=partialRectangle;connectable=0;fillColor=none;top=0;left=0;bottom=0;right=0;align=left;spacingLeft=6;overflow=hidden;whiteSpace=wrap;html=1;fontSize=16;" vertex="1" parent="W6bzQkARnBELGR5Gf_8T-30">
          <mxGeometry x="30" width="150" height="57" as="geometry">
            <mxRectangle width="150" height="57" as="alternateBounds" />
          </mxGeometry>
        </mxCell>
        <mxCell id="W6bzQkARnBELGR5Gf_8T-33" value="" style="shape=tableRow;horizontal=0;startSize=0;swimlaneHead=0;swimlaneBody=0;fillColor=none;collapsible=0;dropTarget=0;points=[[0,0.5],[1,0.5]];portConstraint=eastwest;top=0;left=0;right=0;bottom=0;fontSize=16;" vertex="1" parent="W6bzQkARnBELGR5Gf_8T-5">
          <mxGeometry y="543" width="180" height="57" as="geometry" />
        </mxCell>
        <mxCell id="W6bzQkARnBELGR5Gf_8T-34" value="" style="shape=partialRectangle;connectable=0;fillColor=none;top=0;left=0;bottom=0;right=0;editable=1;overflow=hidden;whiteSpace=wrap;html=1;fontSize=16;" vertex="1" parent="W6bzQkARnBELGR5Gf_8T-33">
          <mxGeometry width="30" height="57" as="geometry">
            <mxRectangle width="30" height="57" as="alternateBounds" />
          </mxGeometry>
        </mxCell>
        <mxCell id="W6bzQkARnBELGR5Gf_8T-35" value="create_date" style="shape=partialRectangle;connectable=0;fillColor=none;top=0;left=0;bottom=0;right=0;align=left;spacingLeft=6;overflow=hidden;whiteSpace=wrap;html=1;fontSize=16;" vertex="1" parent="W6bzQkARnBELGR5Gf_8T-33">
          <mxGeometry x="30" width="150" height="57" as="geometry">
            <mxRectangle width="150" height="57" as="alternateBounds" />
          </mxGeometry>
        </mxCell>
        <mxCell id="W6bzQkARnBELGR5Gf_8T-36" value="gold.fact_sales" style="shape=table;startSize=30;container=1;collapsible=1;childLayout=tableLayout;fixedRows=1;rowLines=0;fontStyle=1;align=center;resizeLast=1;html=1;rounded=1;fillColor=#dae8fc;strokeColor=#6c8ebf;fontSize=16;" vertex="1" parent="1">
          <mxGeometry x="480" y="430" width="180" height="542" as="geometry" />
        </mxCell>
        <mxCell id="W6bzQkARnBELGR5Gf_8T-40" value="" style="shape=tableRow;horizontal=0;startSize=0;swimlaneHead=0;swimlaneBody=0;fillColor=none;collapsible=0;dropTarget=0;points=[[0,0.5],[1,0.5]];portConstraint=eastwest;top=0;left=0;right=0;bottom=0;fontSize=16;" vertex="1" parent="W6bzQkARnBELGR5Gf_8T-36">
          <mxGeometry y="30" width="180" height="57" as="geometry" />
        </mxCell>
        <mxCell id="W6bzQkARnBELGR5Gf_8T-41" value="" style="shape=partialRectangle;connectable=0;fillColor=none;top=0;left=0;bottom=0;right=0;editable=1;overflow=hidden;whiteSpace=wrap;html=1;fontSize=16;" vertex="1" parent="W6bzQkARnBELGR5Gf_8T-40">
          <mxGeometry width="50" height="57" as="geometry">
            <mxRectangle width="50" height="57" as="alternateBounds" />
          </mxGeometry>
        </mxCell>
        <mxCell id="W6bzQkARnBELGR5Gf_8T-42" value="order_number" style="shape=partialRectangle;connectable=0;fillColor=none;top=0;left=0;bottom=0;right=0;align=left;spacingLeft=6;overflow=hidden;whiteSpace=wrap;html=1;fontSize=16;" vertex="1" parent="W6bzQkARnBELGR5Gf_8T-40">
          <mxGeometry x="50" width="130" height="57" as="geometry">
            <mxRectangle width="130" height="57" as="alternateBounds" />
          </mxGeometry>
        </mxCell>
        <mxCell id="W6bzQkARnBELGR5Gf_8T-43" value="" style="shape=tableRow;horizontal=0;startSize=0;swimlaneHead=0;swimlaneBody=0;fillColor=none;collapsible=0;dropTarget=0;points=[[0,0.5],[1,0.5]];portConstraint=eastwest;top=0;left=0;right=0;bottom=0;fontSize=16;" vertex="1" parent="W6bzQkARnBELGR5Gf_8T-36">
          <mxGeometry y="87" width="180" height="57" as="geometry" />
        </mxCell>
        <mxCell id="W6bzQkARnBELGR5Gf_8T-44" value="FK1" style="shape=partialRectangle;connectable=0;fillColor=none;top=0;left=0;bottom=0;right=0;editable=1;overflow=hidden;whiteSpace=wrap;html=1;fontSize=16;" vertex="1" parent="W6bzQkARnBELGR5Gf_8T-43">
          <mxGeometry width="50" height="57" as="geometry">
            <mxRectangle width="50" height="57" as="alternateBounds" />
          </mxGeometry>
        </mxCell>
        <mxCell id="W6bzQkARnBELGR5Gf_8T-45" value="&lt;span style=&quot;background-color: light-dark(rgb(230, 230, 230), rgb(237, 237, 237));&quot;&gt;product_key&lt;/span&gt;" style="shape=partialRectangle;connectable=0;fillColor=none;top=0;left=0;bottom=0;right=0;align=left;spacingLeft=6;overflow=hidden;whiteSpace=wrap;html=1;fontSize=16;" vertex="1" parent="W6bzQkARnBELGR5Gf_8T-43">
          <mxGeometry x="50" width="130" height="57" as="geometry">
            <mxRectangle width="130" height="57" as="alternateBounds" />
          </mxGeometry>
        </mxCell>
        <mxCell id="W6bzQkARnBELGR5Gf_8T-46" value="" style="shape=tableRow;horizontal=0;startSize=0;swimlaneHead=0;swimlaneBody=0;fillColor=none;collapsible=0;dropTarget=0;points=[[0,0.5],[1,0.5]];portConstraint=eastwest;top=0;left=0;right=0;bottom=0;fontSize=16;" vertex="1" parent="W6bzQkARnBELGR5Gf_8T-36">
          <mxGeometry y="144" width="180" height="56" as="geometry" />
        </mxCell>
        <mxCell id="W6bzQkARnBELGR5Gf_8T-47" value="FK2" style="shape=partialRectangle;connectable=0;fillColor=none;top=0;left=0;bottom=0;right=0;editable=1;overflow=hidden;whiteSpace=wrap;html=1;fontSize=16;" vertex="1" parent="W6bzQkARnBELGR5Gf_8T-46">
          <mxGeometry width="50" height="56" as="geometry">
            <mxRectangle width="50" height="56" as="alternateBounds" />
          </mxGeometry>
        </mxCell>
        <mxCell id="W6bzQkARnBELGR5Gf_8T-48" value="&lt;span style=&quot;background-color: rgb(230, 230, 230);&quot;&gt;customer_key&lt;/span&gt;" style="shape=partialRectangle;connectable=0;fillColor=none;top=0;left=0;bottom=0;right=0;align=left;spacingLeft=6;overflow=hidden;whiteSpace=wrap;html=1;fontSize=16;" vertex="1" parent="W6bzQkARnBELGR5Gf_8T-46">
          <mxGeometry x="50" width="130" height="56" as="geometry">
            <mxRectangle width="130" height="56" as="alternateBounds" />
          </mxGeometry>
        </mxCell>
        <mxCell id="W6bzQkARnBELGR5Gf_8T-49" value="" style="shape=tableRow;horizontal=0;startSize=0;swimlaneHead=0;swimlaneBody=0;fillColor=none;collapsible=0;dropTarget=0;points=[[0,0.5],[1,0.5]];portConstraint=eastwest;top=0;left=0;right=0;bottom=0;fontSize=16;" vertex="1" parent="W6bzQkARnBELGR5Gf_8T-36">
          <mxGeometry y="200" width="180" height="57" as="geometry" />
        </mxCell>
        <mxCell id="W6bzQkARnBELGR5Gf_8T-50" value="" style="shape=partialRectangle;connectable=0;fillColor=none;top=0;left=0;bottom=0;right=0;editable=1;overflow=hidden;whiteSpace=wrap;html=1;fontSize=16;" vertex="1" parent="W6bzQkARnBELGR5Gf_8T-49">
          <mxGeometry width="50" height="57" as="geometry">
            <mxRectangle width="50" height="57" as="alternateBounds" />
          </mxGeometry>
        </mxCell>
        <mxCell id="W6bzQkARnBELGR5Gf_8T-51" value="order_date" style="shape=partialRectangle;connectable=0;fillColor=none;top=0;left=0;bottom=0;right=0;align=left;spacingLeft=6;overflow=hidden;whiteSpace=wrap;html=1;fontSize=16;" vertex="1" parent="W6bzQkARnBELGR5Gf_8T-49">
          <mxGeometry x="50" width="130" height="57" as="geometry">
            <mxRectangle width="130" height="57" as="alternateBounds" />
          </mxGeometry>
        </mxCell>
        <mxCell id="W6bzQkARnBELGR5Gf_8T-52" value="" style="shape=tableRow;horizontal=0;startSize=0;swimlaneHead=0;swimlaneBody=0;fillColor=none;collapsible=0;dropTarget=0;points=[[0,0.5],[1,0.5]];portConstraint=eastwest;top=0;left=0;right=0;bottom=0;fontSize=16;" vertex="1" parent="W6bzQkARnBELGR5Gf_8T-36">
          <mxGeometry y="257" width="180" height="57" as="geometry" />
        </mxCell>
        <mxCell id="W6bzQkARnBELGR5Gf_8T-53" value="" style="shape=partialRectangle;connectable=0;fillColor=none;top=0;left=0;bottom=0;right=0;editable=1;overflow=hidden;whiteSpace=wrap;html=1;fontSize=16;" vertex="1" parent="W6bzQkARnBELGR5Gf_8T-52">
          <mxGeometry width="50" height="57" as="geometry">
            <mxRectangle width="50" height="57" as="alternateBounds" />
          </mxGeometry>
        </mxCell>
        <mxCell id="W6bzQkARnBELGR5Gf_8T-54" value="shipping_date" style="shape=partialRectangle;connectable=0;fillColor=none;top=0;left=0;bottom=0;right=0;align=left;spacingLeft=6;overflow=hidden;whiteSpace=wrap;html=1;fontSize=16;" vertex="1" parent="W6bzQkARnBELGR5Gf_8T-52">
          <mxGeometry x="50" width="130" height="57" as="geometry">
            <mxRectangle width="130" height="57" as="alternateBounds" />
          </mxGeometry>
        </mxCell>
        <mxCell id="W6bzQkARnBELGR5Gf_8T-55" value="" style="shape=tableRow;horizontal=0;startSize=0;swimlaneHead=0;swimlaneBody=0;fillColor=none;collapsible=0;dropTarget=0;points=[[0,0.5],[1,0.5]];portConstraint=eastwest;top=0;left=0;right=0;bottom=0;fontSize=16;" vertex="1" parent="W6bzQkARnBELGR5Gf_8T-36">
          <mxGeometry y="314" width="180" height="57" as="geometry" />
        </mxCell>
        <mxCell id="W6bzQkARnBELGR5Gf_8T-56" value="" style="shape=partialRectangle;connectable=0;fillColor=none;top=0;left=0;bottom=0;right=0;editable=1;overflow=hidden;whiteSpace=wrap;html=1;fontSize=16;" vertex="1" parent="W6bzQkARnBELGR5Gf_8T-55">
          <mxGeometry width="50" height="57" as="geometry">
            <mxRectangle width="50" height="57" as="alternateBounds" />
          </mxGeometry>
        </mxCell>
        <mxCell id="W6bzQkARnBELGR5Gf_8T-57" value="due_date" style="shape=partialRectangle;connectable=0;fillColor=none;top=0;left=0;bottom=0;right=0;align=left;spacingLeft=6;overflow=hidden;whiteSpace=wrap;html=1;fontSize=16;" vertex="1" parent="W6bzQkARnBELGR5Gf_8T-55">
          <mxGeometry x="50" width="130" height="57" as="geometry">
            <mxRectangle width="130" height="57" as="alternateBounds" />
          </mxGeometry>
        </mxCell>
        <mxCell id="W6bzQkARnBELGR5Gf_8T-58" value="" style="shape=tableRow;horizontal=0;startSize=0;swimlaneHead=0;swimlaneBody=0;fillColor=none;collapsible=0;dropTarget=0;points=[[0,0.5],[1,0.5]];portConstraint=eastwest;top=0;left=0;right=0;bottom=0;fontSize=16;" vertex="1" parent="W6bzQkARnBELGR5Gf_8T-36">
          <mxGeometry y="371" width="180" height="57" as="geometry" />
        </mxCell>
        <mxCell id="W6bzQkARnBELGR5Gf_8T-59" value="" style="shape=partialRectangle;connectable=0;fillColor=none;top=0;left=0;bottom=0;right=0;editable=1;overflow=hidden;whiteSpace=wrap;html=1;fontSize=16;" vertex="1" parent="W6bzQkARnBELGR5Gf_8T-58">
          <mxGeometry width="50" height="57" as="geometry">
            <mxRectangle width="50" height="57" as="alternateBounds" />
          </mxGeometry>
        </mxCell>
        <mxCell id="W6bzQkARnBELGR5Gf_8T-60" value="sales_amount" style="shape=partialRectangle;connectable=0;fillColor=none;top=0;left=0;bottom=0;right=0;align=left;spacingLeft=6;overflow=hidden;whiteSpace=wrap;html=1;fontSize=16;" vertex="1" parent="W6bzQkARnBELGR5Gf_8T-58">
          <mxGeometry x="50" width="130" height="57" as="geometry">
            <mxRectangle width="130" height="57" as="alternateBounds" />
          </mxGeometry>
        </mxCell>
        <mxCell id="W6bzQkARnBELGR5Gf_8T-61" value="" style="shape=tableRow;horizontal=0;startSize=0;swimlaneHead=0;swimlaneBody=0;fillColor=none;collapsible=0;dropTarget=0;points=[[0,0.5],[1,0.5]];portConstraint=eastwest;top=0;left=0;right=0;bottom=0;fontSize=16;" vertex="1" parent="W6bzQkARnBELGR5Gf_8T-36">
          <mxGeometry y="428" width="180" height="57" as="geometry" />
        </mxCell>
        <mxCell id="W6bzQkARnBELGR5Gf_8T-62" value="" style="shape=partialRectangle;connectable=0;fillColor=none;top=0;left=0;bottom=0;right=0;editable=1;overflow=hidden;whiteSpace=wrap;html=1;fontSize=16;" vertex="1" parent="W6bzQkARnBELGR5Gf_8T-61">
          <mxGeometry width="50" height="57" as="geometry">
            <mxRectangle width="50" height="57" as="alternateBounds" />
          </mxGeometry>
        </mxCell>
        <mxCell id="W6bzQkARnBELGR5Gf_8T-63" value="quantity" style="shape=partialRectangle;connectable=0;fillColor=none;top=0;left=0;bottom=0;right=0;align=left;spacingLeft=6;overflow=hidden;whiteSpace=wrap;html=1;fontSize=16;" vertex="1" parent="W6bzQkARnBELGR5Gf_8T-61">
          <mxGeometry x="50" width="130" height="57" as="geometry">
            <mxRectangle width="130" height="57" as="alternateBounds" />
          </mxGeometry>
        </mxCell>
        <mxCell id="W6bzQkARnBELGR5Gf_8T-64" value="" style="shape=tableRow;horizontal=0;startSize=0;swimlaneHead=0;swimlaneBody=0;fillColor=none;collapsible=0;dropTarget=0;points=[[0,0.5],[1,0.5]];portConstraint=eastwest;top=0;left=0;right=0;bottom=0;fontSize=16;" vertex="1" parent="W6bzQkARnBELGR5Gf_8T-36">
          <mxGeometry y="485" width="180" height="57" as="geometry" />
        </mxCell>
        <mxCell id="W6bzQkARnBELGR5Gf_8T-65" value="" style="shape=partialRectangle;connectable=0;fillColor=none;top=0;left=0;bottom=0;right=0;editable=1;overflow=hidden;whiteSpace=wrap;html=1;fontSize=16;" vertex="1" parent="W6bzQkARnBELGR5Gf_8T-64">
          <mxGeometry width="50" height="57" as="geometry">
            <mxRectangle width="50" height="57" as="alternateBounds" />
          </mxGeometry>
        </mxCell>
        <mxCell id="W6bzQkARnBELGR5Gf_8T-66" value="price" style="shape=partialRectangle;connectable=0;fillColor=none;top=0;left=0;bottom=0;right=0;align=left;spacingLeft=6;overflow=hidden;whiteSpace=wrap;html=1;fontSize=16;" vertex="1" parent="W6bzQkARnBELGR5Gf_8T-64">
          <mxGeometry x="50" width="130" height="57" as="geometry">
            <mxRectangle width="130" height="57" as="alternateBounds" />
          </mxGeometry>
        </mxCell>
        <mxCell id="W6bzQkARnBELGR5Gf_8T-67" value="gold.dim_products" style="shape=table;startSize=30;container=1;collapsible=1;childLayout=tableLayout;fixedRows=1;rowLines=0;fontStyle=1;align=center;resizeLast=1;html=1;rounded=1;fillColor=#fff2cc;strokeColor=#d6b656;fontSize=16;" vertex="1" parent="1">
          <mxGeometry x="880" y="430" width="180" height="600" as="geometry" />
        </mxCell>
        <mxCell id="W6bzQkARnBELGR5Gf_8T-68" value="" style="shape=tableRow;horizontal=0;startSize=0;swimlaneHead=0;swimlaneBody=0;fillColor=none;collapsible=0;dropTarget=0;points=[[0,0.5],[1,0.5]];portConstraint=eastwest;top=0;left=0;right=0;bottom=1;fontSize=16;" vertex="1" parent="W6bzQkARnBELGR5Gf_8T-67">
          <mxGeometry y="30" width="180" height="57" as="geometry" />
        </mxCell>
        <mxCell id="W6bzQkARnBELGR5Gf_8T-69" value="PK" style="shape=partialRectangle;connectable=0;fillColor=none;top=0;left=0;bottom=0;right=0;fontStyle=1;overflow=hidden;whiteSpace=wrap;html=1;fontSize=16;" vertex="1" parent="W6bzQkARnBELGR5Gf_8T-68">
          <mxGeometry width="30" height="57" as="geometry">
            <mxRectangle width="30" height="57" as="alternateBounds" />
          </mxGeometry>
        </mxCell>
        <mxCell id="W6bzQkARnBELGR5Gf_8T-70" value="product_key" style="shape=partialRectangle;connectable=0;fillColor=none;top=0;left=0;bottom=0;right=0;align=left;spacingLeft=6;fontStyle=5;overflow=hidden;whiteSpace=wrap;html=1;fontSize=16;" vertex="1" parent="W6bzQkARnBELGR5Gf_8T-68">
          <mxGeometry x="30" width="150" height="57" as="geometry">
            <mxRectangle width="150" height="57" as="alternateBounds" />
          </mxGeometry>
        </mxCell>
        <mxCell id="W6bzQkARnBELGR5Gf_8T-71" value="" style="shape=tableRow;horizontal=0;startSize=0;swimlaneHead=0;swimlaneBody=0;fillColor=none;collapsible=0;dropTarget=0;points=[[0,0.5],[1,0.5]];portConstraint=eastwest;top=0;left=0;right=0;bottom=0;fontSize=16;" vertex="1" parent="W6bzQkARnBELGR5Gf_8T-67">
          <mxGeometry y="87" width="180" height="57" as="geometry" />
        </mxCell>
        <mxCell id="W6bzQkARnBELGR5Gf_8T-72" value="" style="shape=partialRectangle;connectable=0;fillColor=none;top=0;left=0;bottom=0;right=0;editable=1;overflow=hidden;whiteSpace=wrap;html=1;fontSize=16;" vertex="1" parent="W6bzQkARnBELGR5Gf_8T-71">
          <mxGeometry width="30" height="57" as="geometry">
            <mxRectangle width="30" height="57" as="alternateBounds" />
          </mxGeometry>
        </mxCell>
        <mxCell id="W6bzQkARnBELGR5Gf_8T-73" value="product_id" style="shape=partialRectangle;connectable=0;fillColor=none;top=0;left=0;bottom=0;right=0;align=left;spacingLeft=6;overflow=hidden;whiteSpace=wrap;html=1;fontSize=16;" vertex="1" parent="W6bzQkARnBELGR5Gf_8T-71">
          <mxGeometry x="30" width="150" height="57" as="geometry">
            <mxRectangle width="150" height="57" as="alternateBounds" />
          </mxGeometry>
        </mxCell>
        <mxCell id="W6bzQkARnBELGR5Gf_8T-74" value="" style="shape=tableRow;horizontal=0;startSize=0;swimlaneHead=0;swimlaneBody=0;fillColor=none;collapsible=0;dropTarget=0;points=[[0,0.5],[1,0.5]];portConstraint=eastwest;top=0;left=0;right=0;bottom=0;fontSize=16;" vertex="1" parent="W6bzQkARnBELGR5Gf_8T-67">
          <mxGeometry y="144" width="180" height="57" as="geometry" />
        </mxCell>
        <mxCell id="W6bzQkARnBELGR5Gf_8T-75" value="" style="shape=partialRectangle;connectable=0;fillColor=none;top=0;left=0;bottom=0;right=0;editable=1;overflow=hidden;whiteSpace=wrap;html=1;fontSize=16;" vertex="1" parent="W6bzQkARnBELGR5Gf_8T-74">
          <mxGeometry width="30" height="57" as="geometry">
            <mxRectangle width="30" height="57" as="alternateBounds" />
          </mxGeometry>
        </mxCell>
        <mxCell id="W6bzQkARnBELGR5Gf_8T-76" value="product_number" style="shape=partialRectangle;connectable=0;fillColor=none;top=0;left=0;bottom=0;right=0;align=left;spacingLeft=6;overflow=hidden;whiteSpace=wrap;html=1;fontSize=16;" vertex="1" parent="W6bzQkARnBELGR5Gf_8T-74">
          <mxGeometry x="30" width="150" height="57" as="geometry">
            <mxRectangle width="150" height="57" as="alternateBounds" />
          </mxGeometry>
        </mxCell>
        <mxCell id="W6bzQkARnBELGR5Gf_8T-77" value="" style="shape=tableRow;horizontal=0;startSize=0;swimlaneHead=0;swimlaneBody=0;fillColor=none;collapsible=0;dropTarget=0;points=[[0,0.5],[1,0.5]];portConstraint=eastwest;top=0;left=0;right=0;bottom=0;fontSize=16;" vertex="1" parent="W6bzQkARnBELGR5Gf_8T-67">
          <mxGeometry y="201" width="180" height="57" as="geometry" />
        </mxCell>
        <mxCell id="W6bzQkARnBELGR5Gf_8T-78" value="" style="shape=partialRectangle;connectable=0;fillColor=none;top=0;left=0;bottom=0;right=0;editable=1;overflow=hidden;whiteSpace=wrap;html=1;fontSize=16;" vertex="1" parent="W6bzQkARnBELGR5Gf_8T-77">
          <mxGeometry width="30" height="57" as="geometry">
            <mxRectangle width="30" height="57" as="alternateBounds" />
          </mxGeometry>
        </mxCell>
        <mxCell id="W6bzQkARnBELGR5Gf_8T-79" value="product_name" style="shape=partialRectangle;connectable=0;fillColor=none;top=0;left=0;bottom=0;right=0;align=left;spacingLeft=6;overflow=hidden;whiteSpace=wrap;html=1;fontSize=16;" vertex="1" parent="W6bzQkARnBELGR5Gf_8T-77">
          <mxGeometry x="30" width="150" height="57" as="geometry">
            <mxRectangle width="150" height="57" as="alternateBounds" />
          </mxGeometry>
        </mxCell>
        <mxCell id="W6bzQkARnBELGR5Gf_8T-80" value="" style="shape=tableRow;horizontal=0;startSize=0;swimlaneHead=0;swimlaneBody=0;fillColor=none;collapsible=0;dropTarget=0;points=[[0,0.5],[1,0.5]];portConstraint=eastwest;top=0;left=0;right=0;bottom=0;fontSize=16;" vertex="1" parent="W6bzQkARnBELGR5Gf_8T-67">
          <mxGeometry y="258" width="180" height="57" as="geometry" />
        </mxCell>
        <mxCell id="W6bzQkARnBELGR5Gf_8T-81" value="" style="shape=partialRectangle;connectable=0;fillColor=none;top=0;left=0;bottom=0;right=0;editable=1;overflow=hidden;whiteSpace=wrap;html=1;fontSize=16;" vertex="1" parent="W6bzQkARnBELGR5Gf_8T-80">
          <mxGeometry width="30" height="57" as="geometry">
            <mxRectangle width="30" height="57" as="alternateBounds" />
          </mxGeometry>
        </mxCell>
        <mxCell id="W6bzQkARnBELGR5Gf_8T-82" value="category_id" style="shape=partialRectangle;connectable=0;fillColor=none;top=0;left=0;bottom=0;right=0;align=left;spacingLeft=6;overflow=hidden;whiteSpace=wrap;html=1;fontSize=16;" vertex="1" parent="W6bzQkARnBELGR5Gf_8T-80">
          <mxGeometry x="30" width="150" height="57" as="geometry">
            <mxRectangle width="150" height="57" as="alternateBounds" />
          </mxGeometry>
        </mxCell>
        <mxCell id="W6bzQkARnBELGR5Gf_8T-83" value="" style="shape=tableRow;horizontal=0;startSize=0;swimlaneHead=0;swimlaneBody=0;fillColor=none;collapsible=0;dropTarget=0;points=[[0,0.5],[1,0.5]];portConstraint=eastwest;top=0;left=0;right=0;bottom=0;fontSize=16;" vertex="1" parent="W6bzQkARnBELGR5Gf_8T-67">
          <mxGeometry y="315" width="180" height="57" as="geometry" />
        </mxCell>
        <mxCell id="W6bzQkARnBELGR5Gf_8T-84" value="" style="shape=partialRectangle;connectable=0;fillColor=none;top=0;left=0;bottom=0;right=0;editable=1;overflow=hidden;whiteSpace=wrap;html=1;fontSize=16;" vertex="1" parent="W6bzQkARnBELGR5Gf_8T-83">
          <mxGeometry width="30" height="57" as="geometry">
            <mxRectangle width="30" height="57" as="alternateBounds" />
          </mxGeometry>
        </mxCell>
        <mxCell id="W6bzQkARnBELGR5Gf_8T-85" value="subcategory" style="shape=partialRectangle;connectable=0;fillColor=none;top=0;left=0;bottom=0;right=0;align=left;spacingLeft=6;overflow=hidden;whiteSpace=wrap;html=1;fontSize=16;" vertex="1" parent="W6bzQkARnBELGR5Gf_8T-83">
          <mxGeometry x="30" width="150" height="57" as="geometry">
            <mxRectangle width="150" height="57" as="alternateBounds" />
          </mxGeometry>
        </mxCell>
        <mxCell id="W6bzQkARnBELGR5Gf_8T-86" value="" style="shape=tableRow;horizontal=0;startSize=0;swimlaneHead=0;swimlaneBody=0;fillColor=none;collapsible=0;dropTarget=0;points=[[0,0.5],[1,0.5]];portConstraint=eastwest;top=0;left=0;right=0;bottom=0;fontSize=16;" vertex="1" parent="W6bzQkARnBELGR5Gf_8T-67">
          <mxGeometry y="372" width="180" height="57" as="geometry" />
        </mxCell>
        <mxCell id="W6bzQkARnBELGR5Gf_8T-87" value="" style="shape=partialRectangle;connectable=0;fillColor=none;top=0;left=0;bottom=0;right=0;editable=1;overflow=hidden;whiteSpace=wrap;html=1;fontSize=16;" vertex="1" parent="W6bzQkARnBELGR5Gf_8T-86">
          <mxGeometry width="30" height="57" as="geometry">
            <mxRectangle width="30" height="57" as="alternateBounds" />
          </mxGeometry>
        </mxCell>
        <mxCell id="W6bzQkARnBELGR5Gf_8T-88" value="maintenance" style="shape=partialRectangle;connectable=0;fillColor=none;top=0;left=0;bottom=0;right=0;align=left;spacingLeft=6;overflow=hidden;whiteSpace=wrap;html=1;fontSize=16;" vertex="1" parent="W6bzQkARnBELGR5Gf_8T-86">
          <mxGeometry x="30" width="150" height="57" as="geometry">
            <mxRectangle width="150" height="57" as="alternateBounds" />
          </mxGeometry>
        </mxCell>
        <mxCell id="W6bzQkARnBELGR5Gf_8T-89" value="" style="shape=tableRow;horizontal=0;startSize=0;swimlaneHead=0;swimlaneBody=0;fillColor=none;collapsible=0;dropTarget=0;points=[[0,0.5],[1,0.5]];portConstraint=eastwest;top=0;left=0;right=0;bottom=0;fontSize=16;" vertex="1" parent="W6bzQkARnBELGR5Gf_8T-67">
          <mxGeometry y="429" width="180" height="57" as="geometry" />
        </mxCell>
        <mxCell id="W6bzQkARnBELGR5Gf_8T-90" value="" style="shape=partialRectangle;connectable=0;fillColor=none;top=0;left=0;bottom=0;right=0;editable=1;overflow=hidden;whiteSpace=wrap;html=1;fontSize=16;" vertex="1" parent="W6bzQkARnBELGR5Gf_8T-89">
          <mxGeometry width="30" height="57" as="geometry">
            <mxRectangle width="30" height="57" as="alternateBounds" />
          </mxGeometry>
        </mxCell>
        <mxCell id="W6bzQkARnBELGR5Gf_8T-91" value="cost" style="shape=partialRectangle;connectable=0;fillColor=none;top=0;left=0;bottom=0;right=0;align=left;spacingLeft=6;overflow=hidden;whiteSpace=wrap;html=1;fontSize=16;" vertex="1" parent="W6bzQkARnBELGR5Gf_8T-89">
          <mxGeometry x="30" width="150" height="57" as="geometry">
            <mxRectangle width="150" height="57" as="alternateBounds" />
          </mxGeometry>
        </mxCell>
        <mxCell id="W6bzQkARnBELGR5Gf_8T-92" value="" style="shape=tableRow;horizontal=0;startSize=0;swimlaneHead=0;swimlaneBody=0;fillColor=none;collapsible=0;dropTarget=0;points=[[0,0.5],[1,0.5]];portConstraint=eastwest;top=0;left=0;right=0;bottom=0;fontSize=16;" vertex="1" parent="W6bzQkARnBELGR5Gf_8T-67">
          <mxGeometry y="486" width="180" height="57" as="geometry" />
        </mxCell>
        <mxCell id="W6bzQkARnBELGR5Gf_8T-93" value="" style="shape=partialRectangle;connectable=0;fillColor=none;top=0;left=0;bottom=0;right=0;editable=1;overflow=hidden;whiteSpace=wrap;html=1;fontSize=16;" vertex="1" parent="W6bzQkARnBELGR5Gf_8T-92">
          <mxGeometry width="30" height="57" as="geometry">
            <mxRectangle width="30" height="57" as="alternateBounds" />
          </mxGeometry>
        </mxCell>
        <mxCell id="W6bzQkARnBELGR5Gf_8T-94" value="product_line" style="shape=partialRectangle;connectable=0;fillColor=none;top=0;left=0;bottom=0;right=0;align=left;spacingLeft=6;overflow=hidden;whiteSpace=wrap;html=1;fontSize=16;" vertex="1" parent="W6bzQkARnBELGR5Gf_8T-92">
          <mxGeometry x="30" width="150" height="57" as="geometry">
            <mxRectangle width="150" height="57" as="alternateBounds" />
          </mxGeometry>
        </mxCell>
        <mxCell id="W6bzQkARnBELGR5Gf_8T-95" value="" style="shape=tableRow;horizontal=0;startSize=0;swimlaneHead=0;swimlaneBody=0;fillColor=none;collapsible=0;dropTarget=0;points=[[0,0.5],[1,0.5]];portConstraint=eastwest;top=0;left=0;right=0;bottom=0;fontSize=16;" vertex="1" parent="W6bzQkARnBELGR5Gf_8T-67">
          <mxGeometry y="543" width="180" height="57" as="geometry" />
        </mxCell>
        <mxCell id="W6bzQkARnBELGR5Gf_8T-96" value="" style="shape=partialRectangle;connectable=0;fillColor=none;top=0;left=0;bottom=0;right=0;editable=1;overflow=hidden;whiteSpace=wrap;html=1;fontSize=16;" vertex="1" parent="W6bzQkARnBELGR5Gf_8T-95">
          <mxGeometry width="30" height="57" as="geometry">
            <mxRectangle width="30" height="57" as="alternateBounds" />
          </mxGeometry>
        </mxCell>
        <mxCell id="W6bzQkARnBELGR5Gf_8T-97" value="start_date" style="shape=partialRectangle;connectable=0;fillColor=none;top=0;left=0;bottom=0;right=0;align=left;spacingLeft=6;overflow=hidden;whiteSpace=wrap;html=1;fontSize=16;" vertex="1" parent="W6bzQkARnBELGR5Gf_8T-95">
          <mxGeometry x="30" width="150" height="57" as="geometry">
            <mxRectangle width="150" height="57" as="alternateBounds" />
          </mxGeometry>
        </mxCell>
        <mxCell id="W6bzQkARnBELGR5Gf_8T-98" value="" style="edgeStyle=entityRelationEdgeStyle;fontSize=12;html=1;endArrow=ERzeroToMany;startArrow=ERmandOne;rounded=0;exitX=1;exitY=0.5;exitDx=0;exitDy=0;entryX=0;entryY=0.5;entryDx=0;entryDy=0;" edge="1" parent="1" source="W6bzQkARnBELGR5Gf_8T-6" target="W6bzQkARnBELGR5Gf_8T-46">
          <mxGeometry width="100" height="100" relative="1" as="geometry">
            <mxPoint x="320" y="730" as="sourcePoint" />
            <mxPoint x="420" y="630" as="targetPoint" />
          </mxGeometry>
        </mxCell>
        <mxCell id="W6bzQkARnBELGR5Gf_8T-99" value="" style="edgeStyle=entityRelationEdgeStyle;fontSize=12;html=1;endArrow=ERzeroToMany;startArrow=ERmandOne;rounded=0;entryX=1;entryY=0.5;entryDx=0;entryDy=0;exitX=0;exitY=0.5;exitDx=0;exitDy=0;" edge="1" parent="1" source="W6bzQkARnBELGR5Gf_8T-68" target="W6bzQkARnBELGR5Gf_8T-43">
          <mxGeometry width="100" height="100" relative="1" as="geometry">
            <mxPoint x="730" y="720" as="sourcePoint" />
            <mxPoint x="830" y="620" as="targetPoint" />
          </mxGeometry>
        </mxCell>
        <mxCell id="W6bzQkARnBELGR5Gf_8T-100" value="&lt;b&gt;&lt;font style=&quot;font-size: 30px;&quot;&gt;Sales Data Model&lt;/font&gt;&lt;/b&gt;" style="text;html=1;align=center;verticalAlign=middle;resizable=0;points=[];autosize=1;strokeColor=none;fillColor=none;" vertex="1" parent="1">
          <mxGeometry x="45" y="240" width="270" height="50" as="geometry" />
        </mxCell>
        <mxCell id="W6bzQkARnBELGR5Gf_8T-101" value="&lt;font style=&quot;font-size: 20px;&quot;&gt;(Star Schema)&lt;/font&gt;" style="text;html=1;align=center;verticalAlign=middle;resizable=0;points=[];autosize=1;strokeColor=none;fillColor=none;" vertex="1" parent="1">
          <mxGeometry x="310" y="245" width="150" height="40" as="geometry" />
        </mxCell>
      </root>
    </mxGraphModel>
  </diagram>
</mxfile>
